<?xml version="1.0" encoding="UTF-8" standalone="no"?>
<!-- Created with Inkscape (http://www.inkscape.org/) -->

<svg
   xmlns:dc="http://purl.org/dc/elements/1.1/"
   xmlns:cc="http://creativecommons.org/ns#"
   xmlns:rdf="http://www.w3.org/1999/02/22-rdf-syntax-ns#"
   xmlns:svg="http://www.w3.org/2000/svg"
   xmlns="http://www.w3.org/2000/svg"
   xmlns:xlink="http://www.w3.org/1999/xlink"
   xmlns:sodipodi="http://sodipodi.sourceforge.net/DTD/sodipodi-0.dtd"
   xmlns:inkscape="http://www.inkscape.org/namespaces/inkscape"
   width="400"
   height="227"
   id="svg10505"
   version="1.1"
   inkscape:version="0.48.5 r10040"
   sodipodi:docname="illustration-docker.svg">
  <defs
     id="defs10507">
    <clipPath
       id="clipPath8">
      <path
         inkscape:connector-curvature="0"
         d="m 76,2 0,46 -22,0 0,23 -18.419263,0 c -0.07818,0.665694 -0.141485,1.332869 -0.205737,2 -1.151162,12.530963 1.036422,24.087546 6.0625,33.96875 L 43.125,110 c 1.011403,1.81678 2.191241,3.52297 3.4375,5.1875 1.244725,1.66248 1.685716,2.58262 2.46875,3.6875 C 62.319911,133.81083 82.129473,141 105,141 155.64836,141 198.63299,118.56201 217.65625,68.15625 231.15302,69.54122 244.09968,66.080358 250,54.5625 240.60137,49.138835 228.52163,50.877226 221.5625,54.375 L 240,2 168,48 145,48 145,2 z"
         id="path10" />
    </clipPath>
  </defs>
  <sodipodi:namedview
     id="base"
     pagecolor="#ffffff"
     bordercolor="#666666"
     borderopacity="1.0"
     inkscape:pageopacity="0.0"
     inkscape:pageshadow="2"
     inkscape:zoom="1.4142136"
     inkscape:cx="171.38213"
     inkscape:cy="103.56161"
     inkscape:document-units="px"
     inkscape:current-layer="layer1"
     showgrid="false"
     inkscape:showpageshadow="false"
     inkscape:window-width="3840"
     inkscape:window-height="1529"
     inkscape:window-x="1912"
     inkscape:window-y="-8"
     inkscape:window-maximized="1"
     showguides="true"
     inkscape:guide-bbox="true"
     inkscape:snap-bbox="true"
     inkscape:bbox-nodes="true"
     inkscape:snap-global="false">
    <sodipodi:guide
       orientation="0,1"
       position="732.56263,953.17994"
       id="guide15544" />
  </sodipodi:namedview>
  <metadata
     id="metadata10510">
    <rdf:RDF>
      <cc:Work
         rdf:about="">
        <dc:format>image/svg+xml</dc:format>
        <dc:type
           rdf:resource="http://purl.org/dc/dcmitype/StillImage" />
        <dc:title />
      </cc:Work>
    </rdf:RDF>
  </metadata>
  <g
     inkscape:label="Layer 1"
     inkscape:groupmode="layer"
     id="layer1"
     transform="translate(0,-825.36218)">
    <g
       id="g17086"
       transform="matrix(1.8979348,0,0,1.8979348,742.18516,-799.24817)">
      <path
         style="fill:#394d54"
         id="path14"
         d="m -269.17953,893.89447 18.89422,0 0,19.2724 9.55352,0 c 4.41166,0 8.94945,-0.78424 13.12746,-2.19683 2.05293,-0.69458 4.35723,-1.66118 6.38229,-2.87683 -2.66718,-3.47473 -4.02888,-7.86219 -4.42982,-12.18694 -0.54431,-5.88218 0.64478,-13.53859 4.63471,-18.14242 l 1.98611,-2.2922 2.3667,1.89832 c 5.95878,4.77692 10.97008,11.45172 11.85338,19.06088 7.17488,-2.10585 15.5986,-1.60777 21.92291,2.03433 l 2.59461,1.49384 -1.36568,2.65958 c -5.34856,10.41618 -16.53018,13.6427 -27.46221,13.0718 -16.35842,40.6546 -51.97259,59.9018 -95.15459,59.9018 -22.30925,0 -42.77754,-8.3214 -54.43311,-28.0716 -0.68336,-1.2268 -1.26857,-2.5097 -1.88919,-3.7697 -3.93993,-8.6936 -5.24851,-18.2174 -4.36078,-27.7333 l 0.26641,-2.85035 16.15663,0 0,-19.2724 18.89423,0 0,-18.85295 37.78844,0 0,-18.85296 22.67346,0 0,37.70591"
         inkscape:connector-curvature="0" />
      <g
         id="g16"
         clip-path="url(#clipPath8)"
         transform="matrix(0.82630208,0,0,0.82449715,-391.04884,856.18857)">
        <g
           id="g18">
          <g
             id="g20"
             transform="translate(0,-22.866)">
            <path
               style="fill:#00acd3"
               id="path22"
               d="m 123.85901,3.8110794 19.81751,0 0,19.8169706 -19.81751,0 z"
               inkscape:connector-curvature="0" />
            <path
               style="fill:#20c2ef"
               id="path24"
               d="m 123.85901,26.676485 19.81751,0 0,19.818043 -19.81751,0 z"
               inkscape:connector-curvature="0" />
            <path
               style="stroke:#394d54;stroke-width:0.99581647"
               id="path26"
               d="m 126.29235,21.976904 0,-16.5157492 m 2.97185,16.5157492 0,-16.5157492 m 3.00184,16.5157492 0,-16.5157492 m 3.00344,16.5157492 0,-16.5157492 m 3.00292,16.5157492 0,-16.5157492 m 2.97131,16.5157492 0,-16.5157492"
               inkscape:connector-curvature="0" />
            <use
               xlink:href="#path26"
               id="use28"
               transform="translate(0,22.866)"
               x="0"
               y="0"
               width="744.09448"
               height="1052.3622" />
          </g>
          <use
             xlink:href="#g20"
             id="use30"
             transform="matrix(1,0,0,-1,22.866,4.572651)"
             x="0"
             y="0"
             width="744.09448"
             height="1052.3622" />
        </g>
        <use
           xlink:href="#g18"
           id="use32"
           transform="translate(-91.464,45.732)"
           x="0"
           y="0"
           width="744.09448"
           height="1052.3622" />
        <use
           xlink:href="#g18"
           id="use34"
           transform="translate(-45.732,45.732)"
           x="0"
           y="0"
           width="744.09448"
           height="1052.3622" />
        <use
           xlink:href="#g18"
           id="use36"
           transform="translate(0,45.732)"
           x="0"
           y="0"
           width="744.09448"
           height="1052.3622" />
      </g>
      <path
         style="fill:#17b5eb"
         id="path38"
         clip-path="url(#clipPath8)"
         d="m 221.57014,54.379649 c 1.53332,-11.915247 -7.38383,-21.274779 -12.91407,-25.71836 -6.37269,7.367765 -7.36295,26.677556 2.63498,34.807431 -5.57952,4.956117 -17.33731,9.448435 -29.37574,9.448435 L 34,72.917155 C 32.829255,85.484184 34,146 34,146 l 217,0 -0.98657,-91.424 c -9.39863,-5.423665 -21.48419,-3.694326 -28.44332,-0.196552"
         inkscape:connector-curvature="0"
         transform="matrix(0.82630208,0,0,0.82449715,-391.04884,856.18857)" />
      <path
         style="fill-opacity:0.17000002"
         id="path40"
         clip-path="url(#clipPath8)"
         d="m 34,89 0,57 217,0 0,-57"
         inkscape:connector-curvature="0"
         transform="matrix(0.82630208,0,0,0.82449715,-391.04884,856.18857)" />
      <path
         style="fill:#d4edf1"
         id="path42"
         clip-path="url(#clipPath8)"
         d="M 111.23736,140.88997 C 97.697741,134.4648 90.265707,125.73081 86.130611,116.19562 L 45,118 l 21,28 45.23736,-5.11003"
         inkscape:connector-curvature="0"
         transform="matrix(0.82630208,0,0,0.82449715,-391.04884,856.18857)" />
      <path
         style="fill-opacity:0.08500001"
         id="path44"
         clip-path="url(#clipPath8)"
         d="m 222.5,53.9375 0,0.03125 c -20.86119,26.889144 -50.78312,50.37872 -82.90625,62.71875 -28.65478,11.00767 -53.638381,11.06039 -70.875,2.21875 -1.85607,-1.04832 -3.675701,-2.21152 -5.5,-3.3125 C 50.582097,106.76175 43.464274,92.152308 44.0625,72.90625 L 34,72.90625 34,146 l 217,0 0,-96 -25,0 z"
         inkscape:connector-curvature="0"
         transform="matrix(0.82630208,0,0,0.82449715,-391.04884,856.18857)" />
      <path
         style="fill:none;stroke:#394d54;stroke-width:1.79142094;stroke-linecap:round"
         id="path46"
         d="m -353.34881,952.6805 c 11.70469,0.6392 24.19615,0.7538 35.09202,-2.6539"
         inkscape:connector-curvature="0" />
      <path
         style="fill:#d4edf1"
         id="path48"
         d="m -306.62536,944.3762 c 0,2.4891 -2.0224,4.5071 -4.51699,4.5071 -2.49504,0 -4.51787,-2.018 -4.51787,-4.5071 0,-2.4892 2.02283,-4.508 4.51787,-4.508 2.49459,0 4.51699,2.0188 4.51699,4.508 z"
         inkscape:connector-curvature="0" />
      <path
         style="fill:#394d54"
         id="path50"
         d="m -309.97095,941.3655 c -0.3943,0.2274 -0.66116,0.6536 -0.66116,1.141 0,0.7278 0.59124,1.3168 1.32054,1.3168 0.49962,0 0.93376,-0.2769 1.15813,-0.6858 0.15842,0.3811 0.24649,0.7997 0.24649,1.2387 0,1.7826 -1.44843,3.2278 -3.2354,3.2278 -1.78653,0 -3.23584,-1.4452 -3.23584,-3.2278 0,-1.7835 1.44931,-3.2293 3.23584,-3.2293 0.41333,0 0.80763,0.078 1.1714,0.2186 z"
         inkscape:connector-curvature="0" />
      <path
         style="fill:#394d54"
         id="path52"
         d="m -391.04884,930.5272 210.15128,0 c -4.57585,-1.1583 -14.47764,-2.7228 -12.84467,-8.7065 -8.32016,9.6068 -28.38575,6.7397 -33.4497,2.0025 -5.63928,8.1611 -38.46809,5.0591 -40.75779,-1.2986 -7.06955,8.2785 -28.97609,8.2785 -36.04608,0 -2.29058,6.3577 -35.11896,9.4597 -40.75867,1.2986 -5.06397,4.7372 -25.12777,7.6043 -33.44881,-2.0025 1.63296,5.9837 -8.26883,7.5482 -12.84556,8.7065"
         inkscape:connector-curvature="0" />
    </g>
  </g>
</svg>
